# xmcd
#
# Track frame offsets: 
#        150
#        16628
#        33971
#        45425
#        65134
#        79949
#        92478
#        113652
#        136905
#        149667
#
# Disc length: 2279 seconds
#
# Revision: 4
# Processed by: cddbd v1.5.2PL0 Copyright (c) Steve Scherf et al.
# Submitted via: ExactAudioCopy v0.95b3
#
DISCID=7c08e50a
DTITLE=Nickel Creek - A Dotted Line
DYEAR=2014
DGENRE=Country
TTITLE0=Rest Of My Life
TTITLE1=Destination
TTITLE2=Elsie
TTITLE3=Christmas Eve
TTITLE4=Hayloft
TTITLE5=21st Of May
TTITLE6=Love Of Mine
TTITLE7=Elephant In The Corn
TTITLE8=You Don't Know What's Going On
TTITLE9=Where Is Love Now
EXTD=2014
EXTT0=
EXTT1=
EXTT2=
EXTT3=
EXTT4=
EXTT5=
EXTT6=
EXTT7=
EXTT8=
EXTT9=
PLAYORDER=
